HIERARCHY
ROOT Hips
{
	OFFSET 0.000000 0.000000 0.000000
	CHANNELS 6 Xposition Yposition Zposition Zrotation Yrotation Xrotation 
	JOINT LeftUpLeg_virtual
	{
		OFFSET 0.000000 0.000000 0.000000
		CHANNELS 3 Zrotation Yrotation Xrotation
		JOINT LeftUpLeg
		{
			OFFSET 10.205400 -3.823500 0.155100
			CHANNELS 3 Zrotation Yrotation Xrotation
			JOINT LeftLeg
			{
				OFFSET 0.708757 -12.982077 0.567790
				CHANNELS 3 Zrotation Yrotation Xrotation
				JOINT LeftFoot
				{
					OFFSET -0.708756 -10.717838 -2.184338
					CHANNELS 3 Zrotation Yrotation Xrotation
					JOINT LeftToeBase
					{
						OFFSET 0.108149 -7.191104 7.560241
						CHANNELS 3 Zrotation Yrotation Xrotation
						End Site
						{
							OFFSET 0.000000 0.000000 0.000000
						}
					}
				}
			}
		}
	}
	JOINT RightUpLeg_virtual
	{
		OFFSET 0.000000 0.000000 0.000000
		CHANNELS 3 Zrotation Yrotation Xrotation
		JOINT RightUpLeg
		{
			OFFSET -10.205400 -3.823500 0.005500
			CHANNELS 3 Zrotation Yrotation Xrotation
			JOINT RightLeg
			{
				OFFSET -0.708756 -12.982134 0.610632
				CHANNELS 3 Zrotation Yrotation Xrotation
				JOINT RightFoot
				{
					OFFSET 0.708754 -10.717769 -1.945823
					CHANNELS 3 Zrotation Yrotation Xrotation
					JOINT RightToeBase
					{
						OFFSET -0.108140 -7.191069 7.372968
						CHANNELS 3 Zrotation Yrotation Xrotation
						End Site
						{
							OFFSET 0.000000 0.000000 0.000000
						}
					}
				}
			}
		}
	}
	JOINT Spine_virtual
	{
		OFFSET 0.000000 0.000000 0.000000
		CHANNELS 3 Zrotation Yrotation Xrotation
		JOINT Spine
		{
			OFFSET 0.000000 6.876099 0.125700
			CHANNELS 3 Zrotation Yrotation Xrotation
			JOINT Spine1
			{
				OFFSET 0.000000 8.022060 0.146608
				CHANNELS 3 Zrotation Yrotation Xrotation
				JOINT Spine2
				{
					OFFSET 0.000000 9.168068 0.167552
					CHANNELS 3 Zrotation Yrotation Xrotation
					JOINT Neck_virtual
					{
						OFFSET 0.000000 0.000000 0.000000
						CHANNELS 3 Zrotation Yrotation Xrotation
						JOINT Neck
						{
							OFFSET 0.000000 10.314075 0.188496
							CHANNELS 3 Zrotation Yrotation Xrotation
							JOINT Head
							{
								OFFSET 0.000000 7.643700 -2.377400
								CHANNELS 3 Zrotation Yrotation Xrotation
								End Site
								{
									OFFSET 0.000000 0.000000 0.000000
								}
							}
						}
					}
					JOINT LeftShoulder_virtual
					{
						OFFSET 0.000000 0.000000 0.000000
						CHANNELS 3 Zrotation Yrotation Xrotation
						JOINT LeftShoulder
						{
							OFFSET 4.392200 8.824978 0.174984
							CHANNELS 3 Zrotation Yrotation Xrotation
							JOINT LeftArm
							{
								OFFSET 8.771219 -2.981674 -0.026999
								CHANNELS 3 Zrotation Yrotation Xrotation
								JOINT LeftForeArm
								{
									OFFSET 8.512804 0.000000 -0.000000
									CHANNELS 3 Zrotation Yrotation Xrotation
									JOINT LeftHand
									{
										OFFSET 18.484802 0.000000 -0.000000
										CHANNELS 3 Zrotation Yrotation Xrotation
										End Site
										{
											OFFSET 0.000000 0.000000 0.000000
										}
									}
								}
							}
						}
					}
					JOINT RightShoulder_virtual
					{
						OFFSET 0.000000 0.000000 0.000000
						CHANNELS 3 Zrotation Yrotation Xrotation
						JOINT RightShoulder
						{
							OFFSET -4.392200 8.824993 0.141379
							CHANNELS 3 Zrotation Yrotation Xrotation
							JOINT RightArm
							{
								OFFSET -8.771282 -2.981682 -0.094208
								CHANNELS 3 Zrotation Yrotation Xrotation
								JOINT RightForeArm
								{
									OFFSET -8.494598 0.000000 0.000000
									CHANNELS 3 Zrotation Yrotation Xrotation
									JOINT RightHand
									{
										OFFSET -18.483803 0.000000 0.000001
										CHANNELS 3 Zrotation Yrotation Xrotation
										End Site
										{
											OFFSET 0.000000 0.000000 0.000000
										}
									}
								}
							}
						}
					}
				}
			}
		}
	}
}
MOTION
Frames: 13
Frame Time: 0.033333
-9.233917 36.517860 -27.736347 -179.990170 -11.931074 -179.708793 -2.913558 -2.462488 13.612971 -5.488990 1.271348 -15.888174 7.628585 4.865741 21.481488 1.931603 -1.993993 6.591577 0.000000 0.000000 0.000000 1.620052 -0.455469 13.039804 -1.546980 2.950840 -16.773239 -7.837194 6.406926 15.809496 11.442181 0.605987 12.075941 0.000000 0.000000 0.000000 1.005210 -0.041504 2.214580 1.645110 -0.236254 -12.481915 1.637200 -4.362048 6.421942 -0.009854 0.029751 0.006241 1.504272 -2.901617 9.103599 -8.882187 6.265708 2.921156 0.000000 0.000000 0.000000 3.410490 -2.177152 5.941856 7.668743 2.938977 -6.754812 30.757175 -15.919014 -26.208180 0.084873 -61.884465 0.851019 0.000000 0.000000 0.000000 -0.832966 -1.129545 5.493398 25.785760 3.897831 -3.350083 47.336957 -10.966315 -7.703588 0.205936 37.133252 -2.856988 0.000000 0.000000 0.000000 
-9.112780 36.571480 -27.960243 179.966127 -12.566938 -179.776631 -3.013389 -1.908006 13.816637 -4.627756 0.452025 -15.866538 7.047735 4.369051 21.176793 2.035846 -1.998794 6.958741 0.000000 0.000000 0.000000 1.999602 0.245016 13.484754 -1.396486 1.435613 -16.716173 -7.585419 5.898602 16.784761 11.042162 0.653783 11.232139 0.000000 0.000000 0.000000 1.052213 0.402080 2.609435 1.915353 -0.302403 -12.404636 1.815194 -4.379420 6.453886 0.023066 0.023596 0.018727 1.663732 -3.034495 9.207872 -9.053347 6.173639 2.254336 0.000000 0.000000 0.000000 3.589111 -2.182343 6.275352 7.600085 3.379660 -6.864087 34.060767 -16.671696 -26.422421 0.190068 -59.230151 1.232057 0.000000 0.000000 0.000000 -0.662223 -1.125843 5.648969 25.482119 3.849047 -3.601761 47.240495 -11.081495 -8.204509 0.395118 37.716025 -2.792994 0.000000 0.000000 0.000000 
-9.006048 36.637608 -28.134670 -179.907879 -13.334325 -179.720172 -2.757926 -1.699738 13.951561 -4.305382 0.349187 -16.005643 6.640937 3.388660 20.525903 1.989403 -1.959889 7.423804 0.000000 0.000000 0.000000 2.550971 0.415665 13.824638 -1.432377 -0.120486 -16.980877 -7.308045 5.217469 17.568382 10.916620 0.961874 10.899320 0.000000 0.000000 0.000000 1.279895 0.684091 2.938884 2.197459 -0.349690 -12.251256 1.997206 -4.448648 6.450645 -0.014098 0.002410 0.035682 1.856599 -3.107232 9.216147 -9.035987 6.142995 1.712316 0.000000 0.000000 0.000000 3.813728 -2.244758 6.455765 6.430395 4.066074 -7.376005 35.669775 -17.222484 -31.397744 0.618091 -55.959040 0.823156 0.000000 0.000000 0.000000 -0.483467 -1.219014 5.843228 25.199843 3.904304 -3.912465 46.698222 -11.234765 -8.620701 0.457899 37.983150 -2.683798 0.000000 0.000000 0.000000 
-8.912720 36.703987 -28.262918 179.996467 -13.950157 -179.737398 -2.865288 -1.635981 14.261304 -3.915223 0.023601 -16.084068 6.203639 2.293518 19.847213 2.159616 -1.684053 8.091477 0.000000 0.000000 0.000000 2.781726 0.369671 14.208755 -1.584260 -1.102437 -17.097451 -7.127522 3.885074 17.942156 11.059467 1.358514 10.979281 0.000000 0.000000 0.000000 1.415892 0.630923 3.326827 2.264530 -0.369285 -11.969624 2.045682 -4.462387 6.491732 0.048139 0.038176 -0.004892 1.956996 -3.239557 9.204013 -8.844397 6.134120 1.305741 0.000000 0.000000 0.000000 3.971355 -2.316788 6.503844 4.820690 4.964556 -7.999132 36.188569 -17.801556 -38.892026 1.213900 -53.070146 -0.163821 0.000000 0.000000 0.000000 -0.338698 -1.277015 5.923415 24.983017 4.067532 -4.185270 45.881963 -11.603068 -9.001173 0.468111 37.842240 -2.531635 0.000000 0.000000 0.000000 
-8.811078 36.754459 -28.362671 -179.801629 -14.577750 -179.741400 -2.650523 -1.850492 14.518730 -3.475740 -0.407771 -16.235891 5.900658 1.797605 19.364158 2.201859 -1.486203 8.625664 0.000000 0.000000 0.000000 3.191613 0.122389 14.406180 -1.696113 -1.513806 -17.063826 -6.644497 3.607791 17.869730 10.645479 1.106233 11.007892 0.000000 0.000000 0.000000 1.715203 0.569510 3.462898 2.381465 -0.605312 -11.656562 2.154533 -4.455310 6.575892 -0.027157 -0.075821 -0.003586 2.059585 -3.018766 9.143304 -8.351604 5.803636 1.214364 0.000000 0.000000 0.000000 4.026529 -2.281198 6.404128 3.486675 6.117093 -8.629541 36.561398 -18.757050 -46.051010 1.596860 -50.722925 -1.190991 0.000000 0.000000 0.000000 -0.284810 -1.273879 5.911902 24.824445 4.371538 -4.448670 45.118266 -12.091099 -9.416521 0.547424 37.446854 -2.200698 0.000000 0.000000 0.000000 
-8.697742 36.780968 -28.438416 -179.911322 -15.242791 -179.792695 -2.707455 -2.002522 14.718199 -3.089934 -0.804193 -16.291885 5.642698 1.547444 19.035017 2.059442 -1.445250 9.019513 0.000000 0.000000 0.000000 3.162312 -0.113379 14.567542 -1.397339 -1.972444 -16.819858 -6.337596 4.134755 17.585075 9.834388 1.160243 10.948224 0.000000 0.000000 0.000000 1.706841 0.594621 3.493676 2.310296 -0.770385 -11.275278 2.165882 -4.577204 6.662905 0.020730 0.014209 0.057076 2.062542 -3.262996 9.030143 -7.788074 5.512280 1.288045 0.000000 0.000000 0.000000 4.003604 -2.332203 6.231558 2.767027 7.325289 -9.047456 37.289339 -19.610146 -50.785137 1.641096 -49.526211 -2.007297 0.000000 0.000000 0.000000 -0.304796 -1.417687 5.743611 24.646608 4.598004 -4.774201 44.761689 -12.890237 -9.694813 0.693028 37.174486 -1.757091 0.000000 0.000000 0.000000 
-8.558391 36.791206 -28.539516 -179.923015 -15.863169 -179.713055 -2.602729 -1.959902 14.744029 -2.635561 -1.224378 -16.426789 5.470418 1.264187 18.832502 1.803393 -1.544532 9.336812 0.000000 0.000000 0.000000 3.284963 -0.017134 14.623999 -1.186375 -2.191106 -16.619450 -6.074853 3.526986 17.678068 9.345138 1.117624 10.713359 0.000000 0.000000 0.000000 1.711218 0.722413 3.297343 2.224943 -1.004044 -11.055196 2.128090 -4.592837 6.704612 0.007287 0.034463 0.016372 2.008122 -3.225941 9.008548 -7.275770 5.201441 1.405777 0.000000 0.000000 0.000000 3.949550 -2.366965 6.165181 2.762878 8.688679 -9.240402 38.482058 -20.309842 -53.108361 1.556629 -49.535640 -2.695299 0.000000 0.000000 0.000000 -0.364374 -1.408612 5.644054 24.467438 4.801900 -4.753865 44.925047 -13.737339 -9.967859 0.506628 37.009602 -1.635680 0.000000 0.000000 0.000000 
-8.411682 36.796772 -28.636471 -179.972930 -16.560538 -179.685174 -2.513762 -1.992378 14.730594 -2.191835 -1.583187 -16.534373 5.388648 1.122351 18.749923 1.518284 -1.728332 9.581958 0.000000 0.000000 0.000000 3.302216 -0.014732 14.677440 -0.754405 -2.694646 -16.358462 -5.873343 3.473078 17.685011 8.768540 1.029199 10.581633 0.000000 0.000000 0.000000 1.644668 0.679924 3.217071 2.075931 -1.309353 -10.961389 2.057408 -4.518475 6.669505 -0.008636 0.141636 0.013547 1.931508 -3.239765 8.978343 -6.904126 4.853760 1.604587 0.000000 0.000000 0.000000 3.911825 -2.344047 6.063621 2.997697 9.822386 -9.316148 40.096024 -20.926895 -54.243897 1.316095 -50.853508 -3.176825 0.000000 0.000000 0.000000 -0.418267 -1.405022 5.579671 24.150323 5.003564 -4.939488 45.512320 -14.899453 -10.404593 0.441482 36.981936 -1.376055 0.000000 0.000000 0.000000 
-8.273304 36.811089 -28.702347 -179.854590 -17.143023 -179.728969 -2.300532 -2.204666 14.736849 -1.853862 -1.739025 -16.603205 5.373578 1.000448 18.740777 1.368265 -1.869927 9.816535 0.000000 0.000000 0.000000 3.488282 -0.166593 14.690991 -0.609339 -3.462551 -16.162488 -5.603218 2.706247 17.741698 8.603048 1.198480 10.503407 0.000000 0.000000 0.000000 1.667785 0.762062 3.246330 1.891544 -1.328178 -10.996808 2.035879 -4.613470 6.542955 0.005330 0.056610 -0.003128 1.797406 -3.256781 8.896260 -6.753951 4.554100 1.726114 0.000000 0.000000 0.000000 3.838754 -2.452054 5.944939 3.011724 10.524178 -9.363037 41.778228 -21.624475 -55.787756 1.131164 -53.394133 -3.590090 0.000000 0.000000 0.000000 -0.470008 -1.355890 5.437427 23.726194 4.918529 -5.023993 46.351501 -16.148072 -11.298365 0.247098 36.748002 -1.281160 0.000000 0.000000 0.000000 
-8.125964 36.824234 -28.734076 -179.980457 -17.736739 -179.680940 -2.371374 -2.840751 14.828619 -1.652111 -1.772196 -16.725503 5.482161 0.934138 18.833004 1.286825 -2.002752 10.114925 0.000000 0.000000 0.000000 3.279194 -0.722140 14.620305 -0.173558 -4.455982 -16.060860 -5.464513 2.548832 17.418924 8.564455 1.629850 10.822028 0.000000 0.000000 0.000000 1.558217 0.401109 3.370855 1.534777 -1.321349 -11.144083 1.996902 -4.610494 6.436764 -0.000055 0.025379 -0.005533 1.788212 -3.309255 8.767821 -6.783908 4.392789 1.811451 0.000000 0.000000 0.000000 3.964446 -2.428887 5.854142 2.649588 10.672032 -9.448577 42.935645 -22.587360 -58.348004 1.172963 -56.965489 -4.077424 0.000000 0.000000 0.000000 -0.388356 -1.371287 5.421052 23.261271 4.959749 -4.908314 47.174498 -17.115817 -12.379335 -0.154622 36.086570 -1.379421 0.000000 0.000000 0.000000 
-7.973808 36.843578 -28.725080 -179.999295 -18.180896 -179.663482 -2.397707 -3.541071 14.968204 -1.494734 -1.567178 -16.991446 5.626828 0.909784 18.900788 1.165392 -2.173091 10.407911 0.000000 0.000000 0.000000 3.124678 -1.267286 14.467077 0.253272 -4.986345 -15.917783 -5.280696 2.269565 16.859613 8.489033 1.929728 11.202903 0.000000 0.000000 0.000000 1.509894 -0.042178 3.540283 1.212088 -1.086255 -11.379695 2.059334 -4.552548 6.331996 -0.013051 0.052652 0.008989 1.917069 -3.306477 8.660998 -6.941487 4.351900 1.925490 0.000000 0.000000 0.000000 4.115615 -2.438627 5.788324 2.023970 10.477062 -9.478724 42.863159 -23.747357 -60.753249 1.514117 -61.277281 -4.614339 0.000000 0.000000 0.000000 -0.239021 -1.345521 5.366957 22.779898 4.842251 -4.718281 47.652963 -17.744598 -13.404620 -0.574838 35.289702 -1.500079 0.000000 0.000000 0.000000 
-7.810639 36.852886 -28.690128 179.998024 -18.638174 -179.606572 -2.448261 -4.090774 15.130174 -1.343416 -1.229626 -17.312274 5.858991 0.878961 18.875559 0.912806 -2.409083 10.551821 0.000000 0.000000 0.000000 2.816551 -1.829334 14.290951 0.575968 -4.441367 -15.638509 -5.263962 1.274129 16.214219 8.351550 2.075554 11.705634 0.000000 0.000000 0.000000 1.407859 -0.416812 3.636047 0.948117 -0.714399 -11.671020 2.189530 -4.481157 6.311575 0.000860 0.083173 0.035977 2.046521 -3.238769 8.599833 -7.202100 4.351525 2.117083 0.000000 0.000000 0.000000 4.320087 -2.412117 5.773663 1.490728 10.111453 -9.348208 41.117093 -24.716406 -61.647853 2.292619 -66.182423 -5.250838 0.000000 0.000000 0.000000 -0.069930 -1.371941 5.382709 22.510326 4.778410 -4.371479 47.917739 -17.836517 -14.246041 -1.033760 34.380789 -1.660675 0.000000 0.000000 0.000000 
-7.636292 36.840649 -28.647589 179.945705 -19.161078 -179.536071 -2.424304 -4.409527 15.276300 -1.230812 -0.886741 -17.694703 6.097231 0.913244 18.737630 0.527318 -2.661590 10.447451 0.000000 0.000000 0.000000 2.614522 -2.061292 14.114707 1.101855 -4.683164 -15.326376 -5.235799 0.576970 15.733785 8.319264 2.234469 11.879991 0.000000 0.000000 0.000000 1.213813 -0.717702 3.612506 0.758820 -0.288851 -12.023469 2.367918 -4.248734 6.338581 0.031943 0.139568 0.041964 2.249449 -2.927558 8.637580 -7.393522 4.444099 2.377217 0.000000 0.000000 0.000000 4.498755 -2.266234 5.853848 1.361762 9.740196 -9.020278 37.430967 -25.513489 -59.955462 3.352888 -71.645344 -5.788842 0.000000 0.000000 0.000000 0.076534 -1.170145 5.414557 22.492911 4.730604 -3.810605 48.050155 -17.331422 -14.654236 -1.519211 33.626684 -1.840692 0.000000 0.000000 0.000000 
